<?xml version="1.0"?>
<svg width="40" height="80" xmlns="http://www.w3.org/2000/svg">
  <style type="text/css">
    .st0{fill:#005DA6;}
    .st2{fill:#A8A8A8;}
  </style>
  <g>
    <rect height="8.1" width="1.1" class="st0" y="18.5" x="14.399999"/>
    <rect height="3.8" width="1.1" class="st0" y="22.8" x="21.099999"/>
    <rect height="12.4" width="1.1" class="st0" y="14.2" x="24.499999"/>
    <rect height="7.1" width="1.1" class="st0" y="19.5" x="27.799999"/>
    <rect height="3.2" width="1.1" class="st0" y="23.4" x="11.099999"/>
    <rect height="6.1" width="1.1" class="st0" y="20.5" x="17.799999"/>
    <rect height="8.1" width="1.1" class="st0" y="14.1" x="11.099999"/>
    <rect height="3.2" width="1.1" class="st0" y="14" x="14.399999"/>
    <rect height="5.2" width="1.1" class="st0" y="14" x="17.799999"/>
    <rect height="7.5" width="1.1" class="st0" y="14" x="21.099999"/>
    <rect height="4.2" width="1.1" class="st0" y="14" x="27.799999"/>
  </g>

  <g>
    <rect height="8.1" width="1.1" class="st2" y="58.5" x="14.4"/>
    <rect height="3.8" width="1.1" class="st2" y="62.8" x="21.1"/>
    <rect height="12.4" width="1.1" class="st2" y="54.2" x="24.5"/>
    <rect height="7.1" width="1.1" class="st2" y="59.5" x="27.8"/>
    <rect height="3.2" width="1.1" class="st2" y="63.4" x="11.1"/>
    <rect height="6.1" width="1.1" class="st2" y="60.5" x="17.8"/>
    <rect height="8.1" width="1.1" class="st2" y="54.1" x="11.1"/>
    <rect height="3.2" width="1.1" class="st2" y="54" x="14.4"/>
    <rect height="5.2" width="1.1" class="st2" y="54" x="17.8"/>
    <rect height="7.5" width="1.1" class="st2" y="54" x="21.1"/>
    <rect height="4.2" width="1.1" class="st2" y="54" x="27.8"/>
  </g>
</svg>
