<?xml version="1.0" encoding="UTF-8" standalone="no"?>
<!-- Created with Inkscape (http://www.inkscape.org/) -->

<svg
   xmlns:dc="http://purl.org/dc/elements/1.1/"
   xmlns:cc="http://creativecommons.org/ns#"
   xmlns:rdf="http://www.w3.org/1999/02/22-rdf-syntax-ns#"
   xmlns:svg="http://www.w3.org/2000/svg"
   xmlns="http://www.w3.org/2000/svg"
   xmlns:sodipodi="http://sodipodi.sourceforge.net/DTD/sodipodi-0.dtd"
   xmlns:inkscape="http://www.inkscape.org/namespaces/inkscape"
   id="svg2"
   version="1.1"
   inkscape:version="0.91 r13725"
   xml:space="preserve"
   width="275"
   height="71"
   viewBox="0 0 275 71"
   sodipodi:docname="pentaho HDS logo CMYK.svg"><metadata
     id="metadata8"><rdf:RDF><cc:Work
         rdf:about=""><dc:format>image/svg+xml</dc:format><dc:type
           rdf:resource="http://purl.org/dc/dcmitype/StillImage" /><dc:title></dc:title></cc:Work></rdf:RDF></metadata><defs
     id="defs6"><clipPath
       clipPathUnits="userSpaceOnUse"
       id="clipPath16"><path
         d="m 0,152 309.583,0 0,-152 L 0,0 0,152 Z"
         id="path18"
         inkscape:connector-curvature="0" /></clipPath><clipPath
       id="clipPath3846"
       clipPathUnits="userSpaceOnUse"><path
         inkscape:connector-curvature="0"
         id="path3848"
         d="m 0,152 309.583,0 0,-152 L 0,0 0,152 Z" /></clipPath></defs><sodipodi:namedview
     pagecolor="#ffffff"
     bordercolor="#666666"
     borderopacity="1"
     objecttolerance="10"
     gridtolerance="10"
     guidetolerance="10"
     inkscape:pageopacity="0"
     inkscape:pageshadow="2"
     inkscape:window-width="1706"
     inkscape:window-height="1051"
     id="namedview4"
     showgrid="false"
     inkscape:zoom="2.9235993"
     inkscape:cx="52.927426"
     inkscape:cy="94.412767"
     inkscape:window-x="93"
     inkscape:window-y="16"
     inkscape:window-maximized="0"
     inkscape:current-layer="g10" /><g
     id="g10"
     inkscape:groupmode="layer"
     inkscape:label="pentaho HDS logo CMYK"
     transform="matrix(1.25,0,0,-1.25,0,71)"><g
       transform="translate(-31.034817,-49.87355)"
       inkscape:label="pentaho HGC logo CMYK"
       id="g3840"><g
         id="g3842"><g
           clip-path="url(#clipPath3846)"
           id="g3844"><g
             transform="translate(247.6362,85.8099)"
             id="g3850"><path
               inkscape:connector-curvature="0"
               id="path3852"
               style="fill:#333e48;fill-opacity:1;fill-rule:nonzero;stroke:none"
               d="M 0,0 0.314,0 C 0.67,0 0.973,0.13 0.973,0.465 0.973,0.703 0.8,0.94 0.314,0.94 0.173,0.94 0.075,0.93 0,0.919 L 0,0 Z m 0,-1.501 -0.433,0 0,2.712 c 0.228,0.033 0.443,0.065 0.768,0.065 0.41,0 0.68,-0.086 0.843,-0.206 0.162,-0.118 0.248,-0.303 0.248,-0.561 0,-0.357 -0.238,-0.573 -0.53,-0.66 l 0,-0.021 c 0.239,-0.044 0.401,-0.26 0.455,-0.66 0.065,-0.421 0.13,-0.584 0.173,-0.669 l -0.454,0 c -0.065,0.085 -0.13,0.334 -0.184,0.69 -0.065,0.347 -0.238,0.476 -0.584,0.476 l -0.302,0 0,-1.166 z m 0.453,3.469 c -1.069,0 -1.944,-0.919 -1.944,-2.053 0,-1.158 0.875,-2.065 1.956,-2.065 1.081,-0.011 1.945,0.907 1.945,2.053 0,1.146 -0.864,2.065 -1.945,2.065 l -0.012,0 z m 0.012,0.377 c 1.329,0 2.388,-1.08 2.388,-2.43 0,-1.373 -1.059,-2.444 -2.4,-2.444 -1.329,0 -2.409,1.071 -2.409,2.444 0,1.35 1.08,2.43 2.409,2.43 l 0.012,0 z" /></g><g
             transform="translate(111.1829,86.0431)"
             id="g3854"><path
               inkscape:connector-curvature="0"
               id="path3856"
               style="fill:#333e48;fill-opacity:1;fill-rule:nonzero;stroke:none"
               d="m 0,0 c -3.203,0 -5.375,-2.713 -5.429,-5.862 0,-3.257 2.117,-6.134 5.429,-6.134 3.203,0 5.428,2.713 5.428,5.97 C 5.428,-2.66 3.203,0 0,0 m 0.923,-15.851 c -2.769,0 -5.049,1.412 -6.352,3.638 l 0,-15.422 -4.451,0 0,30.948 4.451,0 0,-3.149 c 1.303,2.226 3.529,3.691 6.298,3.691 5.591,0 9.065,-4.669 9.065,-9.825 0,-5.159 -3.529,-9.881 -9.011,-9.881" /></g><g
             transform="translate(128.2913,81.6462)"
             id="g3858"><path
               inkscape:connector-curvature="0"
               id="path3860"
               style="fill:#333e48;fill-opacity:1;fill-rule:nonzero;stroke:none"
               d="M 0,0 10.206,0 C 9.989,2.715 7.871,5.103 5.103,5.103 2.279,5.103 0.217,2.715 0,0 m 5.103,8.307 c 6.188,0 9.336,-4.669 9.336,-9.88 0,-0.273 0,-0.815 -0.053,-1.087 l -14.332,0 c 0,-3.257 2.66,-5.428 5.972,-5.428 2.334,0 4.233,1.031 5.809,2.335 l 2.279,-2.388 c -1.846,-1.576 -4.18,-3.313 -8.632,-3.313 -6.569,0 -10.042,4.722 -10.042,9.881 0,5.156 3.473,9.88 9.663,9.88" /></g><g
             transform="translate(150.4304,70.9536)"
             id="g3862"><path
               inkscape:connector-curvature="0"
               id="path3864"
               style="fill:#333e48;fill-opacity:1;fill-rule:nonzero;stroke:none"
               d="m 0,0 -4.505,0 0,18.402 4.505,0 0,-2.498 C 0.923,17.641 2.988,19 5.484,19 c 5.483,0 7.707,-3.53 7.707,-8.958 l 0,-10.042 -4.45,0 0,10.042 c 0,3.746 -1.684,5.32 -4.344,5.32 C 2.009,15.362 0.055,13.788 0,10.206 L 0,0 Z" /></g><g
             transform="translate(168.9387,81.9713)"
             id="g3866"><path
               inkscape:connector-curvature="0"
               id="path3868"
               style="fill:#333e48;fill-opacity:1;fill-rule:nonzero;stroke:none"
               d="m 0,0 0,3.694 -2.607,0 0,3.691 2.607,0 0,6.242 4.505,0 0,-6.242 3.908,0 0,-3.691 -3.908,0 0,-3.583 c 0,-5.864 0.273,-7.763 2.388,-7.763 0.381,0 0.87,0.109 1.303,0.162 l 0.543,-3.419 C 7.438,-11.345 6.459,-11.562 5.592,-11.562 0,-11.562 0,-7.599 0,0" /></g><g
             transform="translate(189.9887,74.1002)"
             id="g3870"><path
               inkscape:connector-curvature="0"
               id="path3872"
               style="fill:#333e48;fill-opacity:1;fill-rule:nonzero;stroke:none"
               d="M 0,0 C 3.202,0 5.375,2.771 5.375,5.973 5.375,9.175 3.202,11.998 0,11.998 -3.202,11.998 -5.428,9.23 -5.428,5.973 -5.428,2.607 -3.202,0 0,0 m -0.923,15.853 c 2.824,0 4.995,-1.467 6.351,-3.746 l 0,3.149 4.397,0 0,-18.403 -4.397,0 0,2.93 c -1.303,-2.224 -3.527,-3.691 -6.295,-3.691 -5.592,0 -9.067,4.669 -9.067,9.825 0,5.159 3.528,9.936 9.011,9.936" /></g><g
             transform="translate(208.2464,70.9536)"
             id="g3874"><path
               inkscape:connector-curvature="0"
               id="path3876"
               style="fill:#333e48;fill-opacity:1;fill-rule:nonzero;stroke:none"
               d="m 0,0 -4.452,0 0,34.83 4.452,0 0,-18.926 C 0.976,17.641 2.985,19 5.481,19 c 5.537,0 7.763,-3.53 7.763,-8.958 l 0,-10.042 -4.505,0 0,10.042 c 0,3.746 -1.682,5.32 -4.289,5.32 C 2.007,15.362 0,13.788 0,10.206 L 0,0 Z" /></g><g
             transform="translate(239.565,80.1813)"
             id="g3878"><path
               inkscape:connector-curvature="0"
               id="path3880"
               style="fill:#333e48;fill-opacity:1;fill-rule:nonzero;stroke:none"
               d="m 0,0 c 0,3.908 -2.39,6.515 -5.484,6.515 -3.04,0 -5.428,-2.607 -5.428,-6.515 0,-4.016 2.335,-6.623 5.428,-6.623 C -2.39,-6.623 0,-4.016 0,0 m -15.364,0 c 0,5.156 3.366,9.772 9.88,9.772 6.568,0 9.934,-4.561 9.934,-9.772 0,-5.211 -3.366,-9.825 -9.934,-9.825 -6.514,0 -9.88,4.667 -9.88,9.825" /></g><g
             transform="translate(60.5731,91.197)"
             id="g3882"><path
               inkscape:connector-curvature="0"
               id="path3884"
               style="fill:#005ca6;fill-opacity:1;fill-rule:nonzero;stroke:none"
               d="m 0,0 c -2.125,0 -4.239,-0.386 -6.284,-1.149 -4.859,-2.032 -8.556,-5.849 -10.394,-10.742 -1.996,-5.315 -1.63,-11.44 1.003,-16.807 4.08,-7.572 11.735,-12.104 20.467,-12.104 4.247,0 8.517,1.114 12.35,3.221 6.513,3.863 10.967,10.055 12.53,17.432 1.641,7.747 -0.127,16 -4.85,22.64 -5.776,7.726 -14.723,12.163 -24.54,12.163 -11.04,0 -21.04,-5.496 -26.75,-14.701 -0.564,-0.918 -1.263,-2.055 -1.64,-3.214 -0.057,-0.172 -0.169,-0.707 0.048,-0.964 0.179,-0.211 0.563,-0.266 0.741,-0.266 l 0.002,0 c 0.463,0 0.951,0.464 1.647,1.506 3.388,4.782 7.251,8.263 11.817,10.651 4.047,2.05 8.561,3.132 13.059,3.132 10.675,0 19.893,-5.843 24.056,-15.249 2.445,-5.937 2.424,-12.572 -0.053,-18.216 -2.26,-5.15 -6.4,-9.053 -11.656,-10.99 -1.97,-0.658 -4.003,-0.988 -6.057,-0.988 -7.978,0 -14.502,4.866 -16.236,12.109 -0.789,3.918 0.179,8.154 2.524,11.072 1.388,1.728 3.875,3.802 7.843,3.876 2.49,-0.05 4.991,-1.219 6.391,-2.981 1.053,-1.325 1.432,-2.877 1.096,-4.487 -0.323,-1.236 -1.582,-2.697 -2.671,-2.697 -0.32,0 -0.622,0.114 -0.873,0.33 -0.233,0.246 -0.267,0.51 -0.315,0.877 -0.085,0.66 -0.215,1.66 -1.65,2.193 -0.272,0.079 -0.584,0.124 -0.893,0.124 -2.019,0 -3.434,-1.919 -3.788,-3.815 -0.243,-1.847 0.279,-3.582 1.514,-4.99 1.519,-1.731 4.044,-2.807 6.589,-2.807 0.21,0 0.411,0.005 0.669,0.024 3.107,0.356 5.793,1.981 7.541,4.577 2.042,3.03 2.633,7.093 1.583,10.866 C 12.771,-4.08 6.951,0 0,0" /></g><g
             transform="translate(118.7695,61.414)"
             id="g3886"><path
               inkscape:connector-curvature="0"
               id="path3888"
               style="fill:#333e48;fill-opacity:1;fill-rule:nonzero;stroke:none"
               d="M 0,0 -0.695,2.021 C -0.746,2.156 -0.816,2.37 -0.906,2.661 -0.996,2.952 -1.058,3.165 -1.092,3.301 -1.183,2.884 -1.317,2.429 -1.493,1.935 L -2.163,0 0,0 Z m 1.062,-3.108 -0.742,2.062 -2.839,0 -0.726,-2.062 -1.279,0 2.777,7.455 1.321,0 2.778,-7.455 -1.29,0 z" /></g><g
             transform="translate(130.6577,58.3061)"
             id="g3890"><path
               inkscape:connector-curvature="0"
               id="path3892"
               style="fill:#333e48;fill-opacity:1;fill-rule:nonzero;stroke:none"
               d="m 0,0 -1.219,0 0,3.347 -3.422,0 0,-3.347 -1.214,0 0,7.424 1.214,0 0,-3.036 3.422,0 0,3.036 L 0,7.424 0,0 Z" /></g><path
             inkscape:connector-curvature="0"
             id="path3894"
             style="fill:#333e48;fill-opacity:1;fill-rule:nonzero;stroke:none"
             d="m 133.679,58.306 -1.193,0 0,5.616 1.193,0 0,-5.616 z m -1.264,7.105 c 0,0.212 0.058,0.377 0.175,0.492 0.117,0.115 0.284,0.173 0.5,0.173 0.21,0 0.373,-0.058 0.49,-0.173 0.117,-0.115 0.175,-0.28 0.175,-0.492 0,-0.204 -0.058,-0.364 -0.175,-0.48 -0.117,-0.117 -0.28,-0.176 -0.49,-0.176 -0.216,0 -0.383,0.059 -0.5,0.176 -0.117,0.116 -0.175,0.276 -0.175,0.48" /><g
             transform="translate(137.4775,59.1694)"
             id="g3896"><path
               inkscape:connector-curvature="0"
               id="path3898"
               style="fill:#333e48;fill-opacity:1;fill-rule:nonzero;stroke:none"
               d="m 0,0 c 0.291,0 0.582,0.046 0.874,0.137 l 0,-0.899 C 0.741,-0.819 0.571,-0.868 0.363,-0.906 0.155,-0.945 -0.061,-0.965 -0.284,-0.965 c -1.131,0 -1.696,0.596 -1.696,1.788 l 0,3.026 -0.767,0 0,0.528 0.822,0.437 0.406,1.188 0.737,0 0,-1.249 1.599,0 0,-0.904 -1.599,0 0,-3.006 c 0,-0.288 0.072,-0.5 0.216,-0.637 C -0.422,0.068 -0.233,0 0,0" /></g><g
             transform="translate(141.21,59.1186)"
             id="g3900"><path
               inkscape:connector-curvature="0"
               id="path3902"
               style="fill:#333e48;fill-opacity:1;fill-rule:nonzero;stroke:none"
               d="m 0,0 c 0.433,0 0.781,0.121 1.043,0.363 0.263,0.242 0.394,0.581 0.394,1.018 l 0,0.488 L 0.716,1.838 C 0.154,1.818 -0.255,1.724 -0.51,1.557 -0.766,1.389 -0.894,1.132 -0.894,0.787 -0.894,0.537 -0.819,0.343 -0.67,0.206 -0.521,0.068 -0.298,0 0,0 m 1.777,-0.812 -0.238,0.782 -0.041,0 C 1.227,-0.373 0.955,-0.605 0.681,-0.729 0.406,-0.852 0.054,-0.914 -0.376,-0.914 c -0.552,0 -0.982,0.149 -1.292,0.447 -0.31,0.298 -0.465,0.719 -0.465,1.264 0,0.579 0.215,1.016 0.645,1.31 0.43,0.295 1.085,0.456 1.966,0.483 l 0.969,0.03 0,0.3 C 1.447,3.279 1.363,3.547 1.196,3.725 1.028,3.902 0.769,3.991 0.417,3.991 0.128,3.991 -0.147,3.949 -0.411,3.864 -0.675,3.78 -0.929,3.68 -1.173,3.565 l -0.386,0.853 c 0.305,0.159 0.638,0.28 1,0.363 0.363,0.083 0.705,0.124 1.026,0.124 0.715,0 1.254,-0.155 1.617,-0.467 C 2.448,4.127 2.63,3.638 2.63,2.971 l 0,-3.783 -0.853,0 z" /></g><g
             transform="translate(147.355,58.2045)"
             id="g3904"><path
               inkscape:connector-curvature="0"
               id="path3906"
               style="fill:#333e48;fill-opacity:1;fill-rule:nonzero;stroke:none"
               d="M 0,0 C -0.85,0 -1.496,0.248 -1.937,0.744 -2.379,1.24 -2.6,1.952 -2.6,2.879 c 0,0.945 0.231,1.671 0.693,2.179 0.462,0.507 1.13,0.761 2.003,0.761 0.592,0 1.126,-0.11 1.6,-0.33 L 1.335,4.53 c -0.504,0.196 -0.92,0.294 -1.249,0.294 -0.972,0 -1.457,-0.645 -1.457,-1.934 0,-0.63 0.121,-1.103 0.363,-1.42 0.242,-0.317 0.596,-0.475 1.064,-0.475 0.531,0 1.034,0.132 1.508,0.397 l 0,-1.041 C 1.351,0.225 1.123,0.135 0.881,0.081 0.639,0.027 0.345,0 0,0" /></g><g
             transform="translate(155.1802,58.3061)"
             id="g3908"><path
               inkscape:connector-curvature="0"
               id="path3910"
               style="fill:#333e48;fill-opacity:1;fill-rule:nonzero;stroke:none"
               d="m 0,0 -1.198,0 0,3.453 c 0,0.433 -0.088,0.757 -0.262,0.97 -0.174,0.213 -0.451,0.32 -0.83,0.32 -0.501,0 -0.869,-0.15 -1.105,-0.45 C -3.63,3.994 -3.748,3.492 -3.748,2.788 l 0,-2.788 -1.193,0 0,7.901 1.193,0 0,-2.005 c 0,-0.322 -0.02,-0.666 -0.061,-1.031 l 0.077,0 c 0.162,0.271 0.388,0.481 0.678,0.63 0.289,0.149 0.627,0.223 1.013,0.223 C -0.68,5.718 0,5.032 0,3.661 L 0,0 Z" /></g><path
             inkscape:connector-curvature="0"
             id="path3912"
             style="fill:#333e48;fill-opacity:1;fill-rule:nonzero;stroke:none"
             d="m 157.826,58.306 -1.193,0 0,5.616 1.193,0 0,-5.616 z m -1.264,7.105 c 0,0.212 0.058,0.377 0.175,0.492 0.117,0.115 0.284,0.173 0.5,0.173 0.21,0 0.373,-0.058 0.49,-0.173 0.117,-0.115 0.175,-0.28 0.175,-0.492 0,-0.204 -0.058,-0.364 -0.175,-0.48 -0.117,-0.117 -0.28,-0.176 -0.49,-0.176 -0.216,0 -0.383,0.059 -0.5,0.176 -0.117,0.116 -0.175,0.276 -0.175,0.48" /><g
             transform="translate(165.3975,62.333)"
             id="g3914"><path
               inkscape:connector-curvature="0"
               id="path3916"
               style="fill:#333e48;fill-opacity:1;fill-rule:nonzero;stroke:none"
               d="m 0,0 2.732,0 0,-3.727 C 2.285,-3.873 1.856,-3.976 1.445,-4.037 1.034,-4.098 0.589,-4.128 0.112,-4.128 c -1.124,0 -1.991,0.332 -2.6,0.998 -0.61,0.665 -0.914,1.603 -0.914,2.815 0,1.195 0.343,2.13 1.031,2.806 0.687,0.676 1.633,1.013 2.838,1.013 0.776,0 1.51,-0.149 2.204,-0.447 L 2.245,2.046 C 1.642,2.324 1.04,2.463 0.437,2.463 c -0.792,0 -1.418,-0.249 -1.879,-0.747 -0.46,-0.497 -0.691,-1.177 -0.691,-2.041 0,-0.907 0.208,-1.597 0.622,-2.069 0.415,-0.473 1.012,-0.709 1.79,-0.709 0.393,0 0.813,0.049 1.26,0.147 l 0,1.915 L 0,-1.041 0,0 Z" /></g><g
             transform="translate(172.6343,64.0239)"
             id="g3918"><path
               inkscape:connector-curvature="0"
               id="path3920"
               style="fill:#333e48;fill-opacity:1;fill-rule:nonzero;stroke:none"
               d="M 0,0 C 0.24,0 0.438,-0.017 0.594,-0.051 L 0.477,-1.163 c -0.169,0.041 -0.345,0.061 -0.528,0.061 -0.477,0 -0.864,-0.155 -1.16,-0.467 -0.297,-0.311 -0.445,-0.716 -0.445,-1.214 l 0,-2.935 -1.193,0 0,5.616 0.934,0 0.158,-0.99 0.061,0 c 0.186,0.336 0.429,0.601 0.728,0.798 C -0.668,-0.098 -0.346,0 0,0" /></g><g
             transform="translate(175.1631,61.1245)"
             id="g3922"><path
               inkscape:connector-curvature="0"
               id="path3924"
               style="fill:#333e48;fill-opacity:1;fill-rule:nonzero;stroke:none"
               d="m 0,0 c 0,-1.297 0.479,-1.945 1.437,-1.945 0.948,0 1.422,0.648 1.422,1.945 0,1.283 -0.478,1.925 -1.432,1.925 C 0.926,1.925 0.562,1.759 0.337,1.427 0.112,1.095 0,0.62 0,0 M 4.088,0 C 4.088,-0.917 3.853,-1.633 3.382,-2.148 2.911,-2.663 2.256,-2.92 1.417,-2.92 c -0.525,0 -0.989,0.119 -1.392,0.356 -0.403,0.236 -0.712,0.577 -0.929,1.02 -0.217,0.444 -0.325,0.958 -0.325,1.544 0,0.911 0.233,1.622 0.701,2.133 0.467,0.511 1.125,0.766 1.975,0.766 0.813,0 1.456,-0.261 1.93,-0.784 C 3.851,1.592 4.088,0.887 4.088,0" /></g><g
             transform="translate(184.3745,58.3061)"
             id="g3926"><path
               inkscape:connector-curvature="0"
               id="path3928"
               style="fill:#333e48;fill-opacity:1;fill-rule:nonzero;stroke:none"
               d="m 0,0 -0.167,0.736 -0.062,0 C -0.395,0.476 -0.63,0.271 -0.937,0.122 c -0.306,-0.149 -0.656,-0.224 -1.048,-0.224 -0.681,0 -1.189,0.17 -1.524,0.508 -0.335,0.339 -0.503,0.852 -0.503,1.539 l 0,3.671 1.204,0 0,-3.463 c 0,-0.43 0.088,-0.752 0.264,-0.967 0.176,-0.215 0.452,-0.323 0.828,-0.323 0.501,0 0.869,0.15 1.104,0.449 0.236,0.3 0.353,0.802 0.353,1.506 l 0,2.798 1.198,0 L 0.939,0 0,0 Z" /></g><g
             transform="translate(189.3667,63.0493)"
             id="g3930"><path
               inkscape:connector-curvature="0"
               id="path3932"
               style="fill:#333e48;fill-opacity:1;fill-rule:nonzero;stroke:none"
               d="m 0,0 c -0.474,0 -0.82,-0.139 -1.039,-0.417 -0.218,-0.277 -0.327,-0.721 -0.327,-1.33 l 0,-0.178 c 0,-0.684 0.108,-1.179 0.325,-1.485 0.216,-0.307 0.57,-0.46 1.061,-0.46 0.413,0 0.731,0.169 0.955,0.508 0.223,0.339 0.335,0.821 0.335,1.447 0,0.63 -0.111,1.106 -0.332,1.43 C 0.756,-0.162 0.43,0 0,0 m 0.29,-4.845 c -0.711,0 -1.264,0.256 -1.656,0.767 l -0.071,0 c 0.047,-0.474 0.071,-0.762 0.071,-0.863 l 0,-2.301 -1.194,0 0,8.115 0.965,0 c 0.028,-0.105 0.083,-0.355 0.168,-0.751 l 0.061,0 c 0.372,0.568 0.931,0.853 1.676,0.853 0.7,0 1.246,-0.254 1.637,-0.762 0.391,-0.508 0.587,-1.22 0.587,-2.138 0,-0.917 -0.199,-1.633 -0.597,-2.148 C 1.54,-4.587 0.99,-4.845 0.29,-4.845" /></g><g
             transform="translate(199.2739,64.7959)"
             id="g3934"><path
               inkscape:connector-curvature="0"
               id="path3936"
               style="fill:#333e48;fill-opacity:1;fill-rule:nonzero;stroke:none"
               d="m 0,0 c -0.697,0 -1.246,-0.247 -1.646,-0.741 -0.399,-0.495 -0.599,-1.177 -0.599,-2.047 0,-0.911 0.193,-1.599 0.577,-2.066 0.384,-0.468 0.94,-0.701 1.668,-0.701 0.315,0 0.62,0.031 0.914,0.094 0.294,0.062 0.601,0.143 0.919,0.241 l 0,-1.041 c -0.582,-0.22 -1.242,-0.33 -1.98,-0.33 -1.087,0 -1.921,0.329 -2.504,0.987 -0.582,0.659 -0.873,1.601 -0.873,2.826 0,0.772 0.141,1.447 0.424,2.027 0.283,0.579 0.691,1.022 1.226,1.33 0.535,0.308 1.163,0.462 1.884,0.462 0.759,0 1.459,-0.159 2.102,-0.477 L 1.676,-0.447 C 1.425,-0.328 1.16,-0.224 0.881,-0.134 0.602,-0.045 0.308,0 0,0" /></g><g
             transform="translate(203.3179,61.1245)"
             id="g3938"><path
               inkscape:connector-curvature="0"
               id="path3940"
               style="fill:#333e48;fill-opacity:1;fill-rule:nonzero;stroke:none"
               d="m 0,0 c 0,-1.297 0.479,-1.945 1.437,-1.945 0.948,0 1.422,0.648 1.422,1.945 0,1.283 -0.478,1.925 -1.432,1.925 C 0.926,1.925 0.562,1.759 0.337,1.427 0.112,1.095 0,0.62 0,0 M 4.088,0 C 4.088,-0.917 3.853,-1.633 3.382,-2.148 2.911,-2.663 2.256,-2.92 1.417,-2.92 c -0.525,0 -0.989,0.119 -1.392,0.356 -0.403,0.236 -0.712,0.577 -0.929,1.02 -0.217,0.444 -0.325,0.958 -0.325,1.544 0,0.911 0.233,1.622 0.701,2.133 0.467,0.511 1.125,0.766 1.975,0.766 0.813,0 1.456,-0.261 1.93,-0.784 C 3.851,1.592 4.088,0.887 4.088,0" /></g><g
             transform="translate(213.3013,58.3061)"
             id="g3942"><path
               inkscape:connector-curvature="0"
               id="path3944"
               style="fill:#333e48;fill-opacity:1;fill-rule:nonzero;stroke:none"
               d="m 0,0 -1.198,0 0,3.463 c 0,0.43 -0.082,0.751 -0.244,0.963 -0.162,0.211 -0.416,0.317 -0.762,0.317 -0.461,0 -0.798,-0.15 -1.013,-0.45 C -3.432,3.994 -3.54,3.496 -3.54,2.798 l 0,-2.798 -1.193,0 0,5.616 0.935,0 0.167,-0.736 0.061,0 c 0.156,0.267 0.382,0.474 0.678,0.62 0.296,0.145 0.622,0.218 0.977,0.218 0.864,0 1.436,-0.295 1.717,-0.884 l 0.081,0 c 0.166,0.278 0.4,0.495 0.701,0.65 C 0.885,5.64 1.23,5.718 1.62,5.718 2.29,5.718 2.778,5.549 3.085,5.21 3.391,4.872 3.544,4.355 3.544,3.661 l 0,-3.661 -1.193,0 0,3.463 c 0,0.43 -0.082,0.751 -0.246,0.963 C 1.94,4.637 1.686,4.743 1.341,4.743 0.877,4.743 0.538,4.598 0.322,4.309 0.107,4.02 0,3.575 0,2.976 L 0,0 Z" /></g><g
             transform="translate(220.8628,63.0493)"
             id="g3946"><path
               inkscape:connector-curvature="0"
               id="path3948"
               style="fill:#333e48;fill-opacity:1;fill-rule:nonzero;stroke:none"
               d="m 0,0 c -0.474,0 -0.82,-0.139 -1.039,-0.417 -0.218,-0.277 -0.327,-0.721 -0.327,-1.33 l 0,-0.178 c 0,-0.684 0.108,-1.179 0.325,-1.485 0.216,-0.307 0.57,-0.46 1.061,-0.46 0.413,0 0.731,0.169 0.955,0.508 0.223,0.339 0.335,0.821 0.335,1.447 0,0.63 -0.111,1.106 -0.332,1.43 C 0.756,-0.162 0.43,0 0,0 m 0.29,-4.845 c -0.711,0 -1.264,0.256 -1.656,0.767 l -0.071,0 c 0.047,-0.474 0.071,-0.762 0.071,-0.863 l 0,-2.301 -1.194,0 0,8.115 0.965,0 c 0.028,-0.105 0.083,-0.355 0.168,-0.751 l 0.061,0 c 0.372,0.568 0.931,0.853 1.676,0.853 0.7,0 1.246,-0.254 1.637,-0.762 0.391,-0.508 0.587,-1.22 0.587,-2.138 0,-0.917 -0.199,-1.633 -0.597,-2.148 C 1.54,-4.587 0.99,-4.845 0.29,-4.845" /></g><g
             transform="translate(226.4155,59.1186)"
             id="g3950"><path
               inkscape:connector-curvature="0"
               id="path3952"
               style="fill:#333e48;fill-opacity:1;fill-rule:nonzero;stroke:none"
               d="m 0,0 c 0.433,0 0.781,0.121 1.043,0.363 0.263,0.242 0.394,0.581 0.394,1.018 l 0,0.488 L 0.716,1.838 C 0.154,1.818 -0.255,1.724 -0.51,1.557 -0.766,1.389 -0.894,1.132 -0.894,0.787 -0.894,0.537 -0.819,0.343 -0.67,0.206 -0.521,0.068 -0.298,0 0,0 m 1.777,-0.812 -0.238,0.782 -0.041,0 C 1.227,-0.373 0.955,-0.605 0.681,-0.729 0.406,-0.852 0.054,-0.914 -0.376,-0.914 c -0.552,0 -0.982,0.149 -1.292,0.447 -0.31,0.298 -0.465,0.719 -0.465,1.264 0,0.579 0.215,1.016 0.645,1.31 0.43,0.295 1.085,0.456 1.966,0.483 l 0.969,0.03 0,0.3 C 1.447,3.279 1.363,3.547 1.196,3.725 1.028,3.902 0.769,3.991 0.417,3.991 0.128,3.991 -0.147,3.949 -0.411,3.864 -0.675,3.78 -0.929,3.68 -1.173,3.565 l -0.386,0.853 c 0.305,0.159 0.638,0.28 1,0.363 0.363,0.083 0.705,0.124 1.026,0.124 0.715,0 1.254,-0.155 1.617,-0.467 C 2.448,4.127 2.63,3.638 2.63,2.971 l 0,-3.783 -0.853,0 z" /></g><g
             transform="translate(235.4648,58.3061)"
             id="g3954"><path
               inkscape:connector-curvature="0"
               id="path3956"
               style="fill:#333e48;fill-opacity:1;fill-rule:nonzero;stroke:none"
               d="m 0,0 -1.198,0 0,3.453 c 0,0.433 -0.088,0.757 -0.262,0.97 -0.174,0.213 -0.451,0.32 -0.83,0.32 -0.504,0 -0.874,-0.149 -1.107,-0.447 C -3.631,3.998 -3.748,3.499 -3.748,2.798 l 0,-2.798 -1.193,0 0,5.616 0.935,0 0.167,-0.736 0.061,0 c 0.169,0.267 0.41,0.474 0.721,0.62 0.311,0.145 0.657,0.218 1.036,0.218 C -0.673,5.718 0,5.032 0,3.661 L 0,0 Z" /></g><g
             transform="translate(236.2725,63.9223)"
             id="g3958"><path
               inkscape:connector-curvature="0"
               id="path3960"
               style="fill:#333e48;fill-opacity:1;fill-rule:nonzero;stroke:none"
               d="m 0,0 1.3,0 1.142,-3.184 c 0.173,-0.454 0.288,-0.88 0.346,-1.279 l 0.041,0 c 0.03,0.186 0.086,0.412 0.167,0.677 C 3.077,-3.52 3.507,-2.258 4.286,0 L 5.576,0 3.174,-6.363 C 2.737,-7.531 2.009,-8.115 0.99,-8.115 c -0.264,0 -0.521,0.029 -0.772,0.087 l 0,0.944 c 0.18,-0.041 0.385,-0.061 0.615,-0.061 0.575,0 0.98,0.334 1.213,1 L 2.255,-5.616 0,0 Z" /></g><g
             transform="translate(247.6362,85.8099)"
             id="g3962"><path
               inkscape:connector-curvature="0"
               id="path3964"
               style="fill:#333e48;fill-opacity:1;fill-rule:nonzero;stroke:none"
               d="M 0,0 0.314,0 C 0.67,0 0.973,0.13 0.973,0.465 0.973,0.703 0.8,0.94 0.314,0.94 0.173,0.94 0.075,0.93 0,0.919 L 0,0 Z m 0,-1.501 -0.433,0 0,2.712 c 0.228,0.033 0.443,0.065 0.768,0.065 0.41,0 0.68,-0.086 0.843,-0.206 0.162,-0.118 0.248,-0.303 0.248,-0.561 0,-0.357 -0.238,-0.573 -0.53,-0.66 l 0,-0.021 c 0.239,-0.044 0.401,-0.26 0.455,-0.66 0.065,-0.421 0.13,-0.584 0.173,-0.669 l -0.454,0 c -0.065,0.085 -0.13,0.334 -0.184,0.69 -0.065,0.347 -0.238,0.476 -0.584,0.476 l -0.302,0 0,-1.166 z m 0.453,3.469 c -1.069,0 -1.944,-0.919 -1.944,-2.053 0,-1.158 0.875,-2.065 1.956,-2.065 1.081,-0.011 1.945,0.907 1.945,2.053 0,1.146 -0.864,2.065 -1.945,2.065 l -0.012,0 z m 0.012,0.377 c 1.329,0 2.388,-1.08 2.388,-2.43 0,-1.373 -1.059,-2.444 -2.4,-2.444 -1.329,0 -2.409,1.071 -2.409,2.444 0,1.35 1.08,2.43 2.409,2.43 l 0.012,0 z" /></g><g
             transform="translate(111.1829,86.0431)"
             id="g3966"><path
               inkscape:connector-curvature="0"
               id="path3968"
               style="fill:#333e48;fill-opacity:1;fill-rule:nonzero;stroke:none"
               d="m 0,0 c -3.203,0 -5.375,-2.713 -5.429,-5.862 0,-3.257 2.117,-6.134 5.429,-6.134 3.203,0 5.428,2.713 5.428,5.97 C 5.428,-2.66 3.203,0 0,0 m 0.923,-15.851 c -2.769,0 -5.049,1.412 -6.352,3.638 l 0,-15.422 -4.451,0 0,30.948 4.451,0 0,-3.149 c 1.303,2.226 3.529,3.691 6.298,3.691 5.591,0 9.065,-4.669 9.065,-9.825 0,-5.159 -3.529,-9.881 -9.011,-9.881" /></g><g
             transform="translate(128.2913,81.6462)"
             id="g3970"><path
               inkscape:connector-curvature="0"
               id="path3972"
               style="fill:#333e48;fill-opacity:1;fill-rule:nonzero;stroke:none"
               d="M 0,0 10.206,0 C 9.989,2.715 7.871,5.103 5.103,5.103 2.279,5.103 0.217,2.715 0,0 m 5.103,8.307 c 6.188,0 9.336,-4.669 9.336,-9.88 0,-0.273 0,-0.815 -0.053,-1.087 l -14.332,0 c 0,-3.257 2.66,-5.428 5.972,-5.428 2.334,0 4.233,1.031 5.809,2.335 l 2.279,-2.388 c -1.846,-1.576 -4.18,-3.313 -8.632,-3.313 -6.569,0 -10.042,4.722 -10.042,9.881 0,5.156 3.473,9.88 9.663,9.88" /></g><g
             transform="translate(150.4304,70.9536)"
             id="g3974"><path
               inkscape:connector-curvature="0"
               id="path3976"
               style="fill:#333e48;fill-opacity:1;fill-rule:nonzero;stroke:none"
               d="m 0,0 -4.505,0 0,18.402 4.505,0 0,-2.498 C 0.923,17.641 2.988,19 5.484,19 c 5.483,0 7.707,-3.53 7.707,-8.958 l 0,-10.042 -4.45,0 0,10.042 c 0,3.746 -1.684,5.32 -4.344,5.32 C 2.009,15.362 0.055,13.788 0,10.206 L 0,0 Z" /></g><g
             transform="translate(168.9387,81.9713)"
             id="g3978"><path
               inkscape:connector-curvature="0"
               id="path3980"
               style="fill:#333e48;fill-opacity:1;fill-rule:nonzero;stroke:none"
               d="m 0,0 0,3.694 -2.607,0 0,3.691 2.607,0 0,6.242 4.505,0 0,-6.242 3.908,0 0,-3.691 -3.908,0 0,-3.583 c 0,-5.864 0.273,-7.763 2.388,-7.763 0.381,0 0.87,0.109 1.303,0.162 l 0.543,-3.419 C 7.438,-11.345 6.459,-11.562 5.592,-11.562 0,-11.562 0,-7.599 0,0" /></g><g
             transform="translate(189.9887,74.1002)"
             id="g3982"><path
               inkscape:connector-curvature="0"
               id="path3984"
               style="fill:#333e48;fill-opacity:1;fill-rule:nonzero;stroke:none"
               d="M 0,0 C 3.202,0 5.375,2.771 5.375,5.973 5.375,9.175 3.202,11.998 0,11.998 -3.202,11.998 -5.428,9.23 -5.428,5.973 -5.428,2.607 -3.202,0 0,0 m -0.923,15.853 c 2.824,0 4.995,-1.467 6.351,-3.746 l 0,3.149 4.397,0 0,-18.403 -4.397,0 0,2.93 c -1.303,-2.224 -3.527,-3.691 -6.295,-3.691 -5.592,0 -9.067,4.669 -9.067,9.825 0,5.159 3.528,9.936 9.011,9.936" /></g><g
             transform="translate(208.2464,70.9536)"
             id="g3986"><path
               inkscape:connector-curvature="0"
               id="path3988"
               style="fill:#333e48;fill-opacity:1;fill-rule:nonzero;stroke:none"
               d="m 0,0 -4.452,0 0,34.83 4.452,0 0,-18.926 C 0.976,17.641 2.985,19 5.481,19 c 5.537,0 7.763,-3.53 7.763,-8.958 l 0,-10.042 -4.505,0 0,10.042 c 0,3.746 -1.682,5.32 -4.289,5.32 C 2.007,15.362 0,13.788 0,10.206 L 0,0 Z" /></g><g
             transform="translate(239.565,80.1813)"
             id="g3990"><path
               inkscape:connector-curvature="0"
               id="path3992"
               style="fill:#333e48;fill-opacity:1;fill-rule:nonzero;stroke:none"
               d="m 0,0 c 0,3.908 -2.39,6.515 -5.484,6.515 -3.04,0 -5.428,-2.607 -5.428,-6.515 0,-4.016 2.335,-6.623 5.428,-6.623 C -2.39,-6.623 0,-4.016 0,0 m -15.364,0 c 0,5.156 3.366,9.772 9.88,9.772 6.568,0 9.934,-4.561 9.934,-9.772 0,-5.211 -3.366,-9.825 -9.934,-9.825 -6.514,0 -9.88,4.667 -9.88,9.825" /></g><g
             transform="translate(60.5731,91.197)"
             id="g3994"><path
               inkscape:connector-curvature="0"
               id="path3996"
               style="fill:#005ca6;fill-opacity:1;fill-rule:nonzero;stroke:none"
               d="m 0,0 c -2.125,0 -4.239,-0.386 -6.284,-1.149 -4.859,-2.032 -8.556,-5.849 -10.394,-10.742 -1.996,-5.315 -1.63,-11.44 1.003,-16.807 4.08,-7.572 11.735,-12.104 20.467,-12.104 4.247,0 8.517,1.114 12.35,3.221 6.513,3.863 10.967,10.055 12.53,17.432 1.641,7.747 -0.127,16 -4.85,22.64 -5.776,7.726 -14.723,12.163 -24.54,12.163 -11.04,0 -21.04,-5.496 -26.75,-14.701 -0.564,-0.918 -1.263,-2.055 -1.64,-3.214 -0.057,-0.172 -0.169,-0.707 0.048,-0.964 0.179,-0.211 0.563,-0.266 0.741,-0.266 l 0.002,0 c 0.463,0 0.951,0.464 1.647,1.506 3.388,4.782 7.251,8.263 11.817,10.651 4.047,2.05 8.561,3.132 13.059,3.132 10.675,0 19.893,-5.843 24.056,-15.249 2.445,-5.937 2.424,-12.572 -0.053,-18.216 -2.26,-5.15 -6.4,-9.053 -11.656,-10.99 -1.97,-0.658 -4.003,-0.988 -6.057,-0.988 -7.978,0 -14.502,4.866 -16.236,12.109 -0.789,3.918 0.179,8.154 2.524,11.072 1.388,1.728 3.875,3.802 7.843,3.876 2.49,-0.05 4.991,-1.219 6.391,-2.981 1.053,-1.325 1.432,-2.877 1.096,-4.487 -0.323,-1.236 -1.582,-2.697 -2.671,-2.697 -0.32,0 -0.622,0.114 -0.873,0.33 -0.233,0.246 -0.267,0.51 -0.315,0.877 -0.085,0.66 -0.215,1.66 -1.65,2.193 -0.272,0.079 -0.584,0.124 -0.893,0.124 -2.019,0 -3.434,-1.919 -3.788,-3.815 -0.243,-1.847 0.279,-3.582 1.514,-4.99 1.519,-1.731 4.044,-2.807 6.589,-2.807 0.21,0 0.411,0.005 0.669,0.024 3.107,0.356 5.793,1.981 7.541,4.577 2.042,3.03 2.633,7.093 1.583,10.866 C 12.771,-4.08 6.951,0 0,0" /></g></g></g></g></g></svg>