<?xml version="1.0" encoding="utf-8"?>
<!-- Generator: Adobe Illustrator 20.0.0, SVG Export Plug-In . SVG Version: 6.00 Build 0)  -->
<svg version="1.1" id="Layer_1" xmlns="http://www.w3.org/2000/svg" xmlns:xlink="http://www.w3.org/1999/xlink" x="0px" y="0px"
	 width="1920px" height="337.5px" viewBox="0 0 1920 337.5" style="enable-background:new 0 0 1920 337.5;" xml:space="preserve">
<style type="text/css">
	.st0{opacity:0.25;fill:#004777;enable-background:new    ;}
	.st1{opacity:0.65;fill:#004777;enable-background:new    ;}
	.st2{fill:#00466D;}
</style>
<g>
	<polygon class="st0" points="0,288.1 50.7,313.5 97.7,301.1 148.4,301.1 190.4,304.2 241.1,301.1 286.5,303.9 336.3,268.2 
		386.9,262.6 435.1,303 482.1,292.7 529.1,266.3 579.8,270.1 620.6,270.1 672.5,239.6 720.7,266.3 768.9,261.4 815.9,227.5 
		862.8,208.3 911,168.6 960.4,221 1009.9,214.2 1058.1,193.1 1102.6,253.9 1153.3,264.5 1197.8,216.7 1249.7,203.6 1296.7,182.5 
		1343.7,159.6 1393.1,189.4 1436.4,183.2 1489.5,175.7 1537.8,134.1 1582.3,123.7 1632.9,76.4 1678.7,57.3 1724.4,28.1 1771.4,34.8 
		1823.3,2 1874,32 1920,42.4 1920,337.5 0,337.5 	"/>
	<polygon class="st1" points="0,298.5 45.8,326.6 98.9,312.9 145.9,312 194.1,316.9 238.6,311 286.8,314.2 332.5,289.3 385.7,283.7 
		430.2,312.9 479.6,305.2 525.4,286.8 576.1,288.7 620.6,289.3 671.2,268.8 720.7,287.5 766.4,283.1 815.9,260.8 864.1,244.6 
		909.8,212.3 957.4,252.1 1007.5,239.6 1055.7,232.2 1103.9,271.9 1154.1,285 1196.6,251.4 1246,243.4 1293,228.5 1340,210.5 
		1386.9,232.8 1435.2,228.5 1485.8,222.9 1534,191.2 1583.5,170.7 1631.7,153.4 1678.7,122.9 1724.4,103.7 1770.1,132.3 
		1820.8,117.5 1872.7,73.7 1920,95.6 1920,337.5 0,337.5 	"/>
	<polygon class="st2" points="-1,300.7 38.4,332.4 96.5,327 145.4,323.8 191.4,326.9 237.4,319.4 284.9,326.9 330.9,307.3 
		382.1,295.7 428.9,321.5 481.6,318.5 524.2,296.6 620.3,309.1 669.1,280.9 717.6,300 764.3,304.6 819.8,299.5 860.5,304.5 
		908.3,281 951,318.6 1006.3,301.7 1049.5,296.7 1102.5,325.8 1153.7,321.8 1197.5,313.4 1250.2,311.9 1295.5,317.1 1340.7,294.3 
		1388.9,286.5 1485.4,273.5 1535.2,259.3 1583.4,271.1 1633.2,267.6 1676.9,255 1723.6,249.1 1770.3,258.9 1821.6,251.1 
		1866.6,234.2 1920,248.3 1920,337.5 -1,337.5 	"/>
</g>
</svg>
